<svg xmlns="http://www.w3.org/2000/svg" width="1200" height="630" viewBox="0 0 1200 630"><defs><linearGradient id="g" x1="0" y1="0" x2="1" y2="1"><stop offset="0" stop-color="#3a3a3d"/><stop offset="1" stop-color="#1d1d1f"/></linearGradient></defs><rect width="1200" height="630" fill="#f3f2ef"/><circle cx="1020" cy="120" r="260" fill="#dedee3" opacity=".35"/><circle cx="160" cy="560" r="220" fill="#2a78d6" opacity=".10"/><g transform="translate(96 110) scale(3)"><rect width="32" height="32" rx="9" fill="url(#g)"/><path d="M7.5 8.5h7M17.5 15.5h7M7.5 23.5h7" stroke="#dedee3" stroke-opacity=".28" stroke-width="2" stroke-linecap="round"/><path d="M7.5 12h11.2a3.6 3.6 0 0 1 0 7.2h-5.4a3.6 3.6 0 0 0 0 7.2" fill="none" stroke="#dedee3" stroke-width="2.6" stroke-linecap="round" stroke-linejoin="round"/><circle cx="7.5" cy="12" r="2.3" fill="#ffffff"/></g><text x="210" y="172" font-family="Inter, -apple-system, sans-serif" font-size="44" font-weight="700" fill="#1d1d1f" letter-spacing="-1">Tamely</text><text x="96" y="340" font-family="Inter, -apple-system, sans-serif" font-size="84" font-weight="700" fill="#1d1d1f" letter-spacing="-2">Your website,</text><rect x="90" y="392" width="560" height="44" fill="#dedee3"/><text x="96" y="430" font-family="Inter, -apple-system, sans-serif" font-size="84" font-weight="700" fill="#1d1d1f" letter-spacing="-2">in plain words.</text><text x="96" y="510" font-family="Inter, -apple-system, sans-serif" font-size="32" fill="#5f5e62">A simple control panel for Cloudflare. Free, on your own Cloudflare AI.</text><text x="96" y="580" font-family="Inter, -apple-system, sans-serif" font-size="22" fill="#86858a">Independent project · not affiliated with Cloudflare</text></svg>
